<mxfile host="Electron" agent="Mozilla/5.0 (Windows NT 10.0; Win64; x64) AppleWebKit/537.36 (KHTML, like Gecko) draw.io/25.0.2 Chrome/128.0.6613.186 Electron/32.2.5 Safari/537.36" version="25.0.2">
  <diagram name="Страница — 1" id="2MzqyZAwkDqdsYlpCulN">
    <mxGraphModel dx="1108" dy="781" grid="1" gridSize="10" guides="1" tooltips="1" connect="1" arrows="1" fold="1" page="1" pageScale="1" pageWidth="827" pageHeight="1169" math="0" shadow="0">
      <root>
        <mxCell id="0" />
        <mxCell id="1" parent="0" />
        <mxCell id="YTE6U9epkK4xcW-7hF41-1" value="" style="ellipse;html=1;shape=startState;fillColor=#000000;strokeColor=#ff0000;" vertex="1" parent="1">
          <mxGeometry x="399" y="90" width="30" height="30" as="geometry" />
        </mxCell>
        <mxCell id="YTE6U9epkK4xcW-7hF41-2" value="" style="edgeStyle=orthogonalEdgeStyle;html=1;verticalAlign=bottom;endArrow=open;endSize=8;strokeColor=#ff0000;rounded=0;" edge="1" source="YTE6U9epkK4xcW-7hF41-1" parent="1">
          <mxGeometry relative="1" as="geometry">
            <mxPoint x="414" y="180" as="targetPoint" />
          </mxGeometry>
        </mxCell>
        <mxCell id="YTE6U9epkK4xcW-7hF41-6" style="edgeStyle=orthogonalEdgeStyle;rounded=0;orthogonalLoop=1;jettySize=auto;html=1;exitX=0.5;exitY=1;exitDx=0;exitDy=0;entryX=0.5;entryY=0;entryDx=0;entryDy=0;" edge="1" parent="1" source="YTE6U9epkK4xcW-7hF41-3" target="YTE6U9epkK4xcW-7hF41-5">
          <mxGeometry relative="1" as="geometry" />
        </mxCell>
        <mxCell id="YTE6U9epkK4xcW-7hF41-3" value="выбор автомобиля" style="rounded=1;whiteSpace=wrap;html=1;" vertex="1" parent="1">
          <mxGeometry x="361" y="180" width="106" height="50" as="geometry" />
        </mxCell>
        <mxCell id="YTE6U9epkK4xcW-7hF41-8" style="edgeStyle=orthogonalEdgeStyle;rounded=0;orthogonalLoop=1;jettySize=auto;html=1;exitX=0.5;exitY=1;exitDx=0;exitDy=0;entryX=0.5;entryY=0;entryDx=0;entryDy=0;" edge="1" parent="1" source="YTE6U9epkK4xcW-7hF41-5" target="YTE6U9epkK4xcW-7hF41-7">
          <mxGeometry relative="1" as="geometry" />
        </mxCell>
        <mxCell id="YTE6U9epkK4xcW-7hF41-5" value="оформление заказа" style="rounded=1;whiteSpace=wrap;html=1;" vertex="1" parent="1">
          <mxGeometry x="361" y="270" width="106" height="50" as="geometry" />
        </mxCell>
        <mxCell id="YTE6U9epkK4xcW-7hF41-10" style="edgeStyle=orthogonalEdgeStyle;rounded=0;orthogonalLoop=1;jettySize=auto;html=1;exitX=1;exitY=0.5;exitDx=0;exitDy=0;entryX=0.5;entryY=0;entryDx=0;entryDy=0;" edge="1" parent="1" source="YTE6U9epkK4xcW-7hF41-7" target="YTE6U9epkK4xcW-7hF41-9">
          <mxGeometry relative="1" as="geometry">
            <mxPoint x="600" y="400" as="targetPoint" />
          </mxGeometry>
        </mxCell>
        <mxCell id="YTE6U9epkK4xcW-7hF41-15" style="edgeStyle=orthogonalEdgeStyle;rounded=0;orthogonalLoop=1;jettySize=auto;html=1;exitX=0;exitY=0.5;exitDx=0;exitDy=0;entryX=0.5;entryY=0;entryDx=0;entryDy=0;" edge="1" parent="1" source="YTE6U9epkK4xcW-7hF41-7" target="YTE6U9epkK4xcW-7hF41-14">
          <mxGeometry relative="1" as="geometry" />
        </mxCell>
        <mxCell id="YTE6U9epkK4xcW-7hF41-7" value="авто доступно?" style="rhombus;whiteSpace=wrap;html=1;" vertex="1" parent="1">
          <mxGeometry x="358" y="360" width="112" height="80" as="geometry" />
        </mxCell>
        <mxCell id="YTE6U9epkK4xcW-7hF41-13" style="edgeStyle=orthogonalEdgeStyle;rounded=0;orthogonalLoop=1;jettySize=auto;html=1;exitX=0.5;exitY=1;exitDx=0;exitDy=0;entryX=1;entryY=0.5;entryDx=0;entryDy=0;" edge="1" parent="1" source="YTE6U9epkK4xcW-7hF41-9" target="YTE6U9epkK4xcW-7hF41-12">
          <mxGeometry relative="1" as="geometry" />
        </mxCell>
        <mxCell id="YTE6U9epkK4xcW-7hF41-9" value="вывести сообщение об недоступности авто" style="rounded=1;whiteSpace=wrap;html=1;" vertex="1" parent="1">
          <mxGeometry x="540" y="510" width="120" height="50" as="geometry" />
        </mxCell>
        <mxCell id="YTE6U9epkK4xcW-7hF41-11" value="нет" style="text;html=1;align=center;verticalAlign=middle;resizable=0;points=[];autosize=1;strokeColor=none;fillColor=none;" vertex="1" parent="1">
          <mxGeometry x="540" y="378" width="40" height="30" as="geometry" />
        </mxCell>
        <mxCell id="YTE6U9epkK4xcW-7hF41-12" value="" style="ellipse;html=1;shape=endState;fillColor=#000000;strokeColor=#ff0000;" vertex="1" parent="1">
          <mxGeometry x="399" y="620" width="30" height="30" as="geometry" />
        </mxCell>
        <mxCell id="YTE6U9epkK4xcW-7hF41-18" style="edgeStyle=orthogonalEdgeStyle;rounded=0;orthogonalLoop=1;jettySize=auto;html=1;exitX=0.5;exitY=1;exitDx=0;exitDy=0;entryX=0.5;entryY=0;entryDx=0;entryDy=0;" edge="1" parent="1" source="YTE6U9epkK4xcW-7hF41-14" target="YTE6U9epkK4xcW-7hF41-17">
          <mxGeometry relative="1" as="geometry" />
        </mxCell>
        <mxCell id="YTE6U9epkK4xcW-7hF41-14" value="оплата заказа" style="rounded=1;whiteSpace=wrap;html=1;" vertex="1" parent="1">
          <mxGeometry x="210" y="450" width="110" height="50" as="geometry" />
        </mxCell>
        <mxCell id="YTE6U9epkK4xcW-7hF41-16" value="да" style="text;html=1;align=center;verticalAlign=middle;resizable=0;points=[];autosize=1;strokeColor=none;fillColor=none;" vertex="1" parent="1">
          <mxGeometry x="260" y="378" width="40" height="30" as="geometry" />
        </mxCell>
        <mxCell id="YTE6U9epkK4xcW-7hF41-19" style="edgeStyle=orthogonalEdgeStyle;rounded=0;orthogonalLoop=1;jettySize=auto;html=1;exitX=0.5;exitY=1;exitDx=0;exitDy=0;entryX=0;entryY=0.5;entryDx=0;entryDy=0;" edge="1" parent="1" source="YTE6U9epkK4xcW-7hF41-17" target="YTE6U9epkK4xcW-7hF41-12">
          <mxGeometry relative="1" as="geometry" />
        </mxCell>
        <mxCell id="YTE6U9epkK4xcW-7hF41-17" value="выдача авто" style="rounded=1;whiteSpace=wrap;html=1;" vertex="1" parent="1">
          <mxGeometry x="210" y="560" width="110" height="50" as="geometry" />
        </mxCell>
      </root>
    </mxGraphModel>
  </diagram>
</mxfile>
